# xmcd
#
# Track frame offsets:
# 150
# 11588
# 21774
# 35580
# 53395
# 66820
# 88744
# 106624
# 127764
# 141046
# 154844
# 168106
# 177769
#
# Disc length: 2583 seconds
#
#
# Revision: 0
# Processed by: cddbd v1.5.1PL2 Copyright (c) Steve Scherf et al.
# Submitted via: FreeRIP 2.60 
#
DISCID=920a150d
DTITLE=Various Artist - Bluegrass Country Artist of the Month
DYEAR=1900
DGENRE=Bluegrass
TTITLE0=J.D. Crowe and The New South - Blue Bonnet Lane
TTITLE1=The Grass Cats - Come In
TTITLE2=Kane's River - Let It Slide
TTITLE3=King Wilkie - Lee and Paige
TTITLE4=Jeff Barbra and Sarah Pirkle - Slip Away
TTITLE5=Blue Highway - Wondrous Love
TTITLE6=Missy Raines - Whiskerhead Goes to Leningrad
TTITLE7=Nothin' Fancy - Little Wooden Crosses
TTITLE8=Doyle Lawson and Quisilver - Will the Angels Play Their Harps for Me
TTITLE9=The Hickory Project - Waves In the Sand
TTITLE10=Marty Raybon and Full Circle - You Better Sit Down and Pray
TTITLE11=The Hunger Mountain Boys - You're Gonna Miss Me When I'm Gone
TTITLE12=The Isaacs - O Come Angel Band
EXTD=
EXTT0=
EXTT1=
EXTT2=
EXTT3=
EXTT4=
EXTT5=
EXTT6=
EXTT7=
EXTT8=
EXTT9=
EXTT10=
EXTT11=
EXTT12=
PLAYORDER=
